Coordinates
version=1
nRows=12
nColumns=33
inDegrees=yes

Units are S.I. units (second, meters, Newtons, ...)
Angles are in degrees.

endheader
time	ground_thorax_rot_x	ground_thorax_rot_y	ground_thorax_rot_z	ground_thorax_tx	ground_thorax_ty	ground_thorax_tz	clav_prot_r	clav_elev_r	scapula_abduction_r	scapula_elevation_r	scapula_upward_rot_r	scapula_winging_r	shoulder_elv_r	plane_of_elev_r	axial_rot_r	elbow_flexion_r	pro_sup_r	wrist_flex_r	wrist_dev_r	clav_prot_l	clav_elev_l	scapula_abduction_l	scapula_elevation_l	scapula_upward_rot_l	scapula_winging_l	shoulder_elv_l	plane_of_elev_l	axial_rot_l	elbow_flexion_l	pro_sup_l	wrist_flex_l	wrist_dev_l
     10.04000000	    -34.55130578	    -26.33740634	     31.53505215	    -94.67719344	    825.87402511	    -40.95754742	     26.17969839	    -45.00000000	     38.69627078	    -45.00000000	    -45.00000000	  -2265.71046784	  -2262.75275998	    160.07778691	     38.83300909	   1079.44952082	    162.30328237	     13.65106801	     15.08866444	      0.07284874	     32.41827730	    -31.37896891	    -45.00000000	    -45.00000000	  -3153.08519676	  -2082.60789120	     26.11987863	     44.48621289	    709.48589683	     41.46293756	     13.78758578	    -17.77497164
     10.05000000	    -34.66214825	    -26.11779147	     31.20948510	    -96.45573987	    828.28665552	    -41.25991441	     26.10386707	    -45.00000000	     38.75294563	    -45.00000000	    -45.00000000	  -2265.79865230	  -2262.68857549	    159.99817633	     38.53433288	   1079.42741722	    162.06952682	     13.73673384	     15.07995733	      0.06426564	     32.46082505	    -31.48536253	    -45.00000000	    -45.00000000	  -3152.96380425	  -2082.51991668	     26.09095466	     44.41462427	    709.47969946	     41.35556260	     13.86035605	    -17.92037059
     10.06000000	    -34.79744431	    -25.86164995	     30.81840587	    -98.15040727	    830.65725796	    -41.56435671	     26.02546303	    -45.00000000	     38.77070103	    -45.00000000	    -45.00000000	  -2265.83582251	  -2262.60391575	    159.91678070	     38.22229314	   1079.40088351	    161.81362839	     13.83444308	     15.05414640	      0.10034154	     32.52286965	    -31.62132714	    -45.00000000	    -45.00000000	  -3152.81515834	  -2082.46414499	     26.09384827	     44.33647461	    709.46113044	     41.23377360	     13.93404931	    -18.06229037
     10.07000000	    -34.87171653	    -25.63566673	     30.51931313	    -99.76191798	    832.97955591	    -41.87384546	     26.01479397	    -45.00000000	     38.83814349	    -45.00000000	    -45.00000000	  -2265.94181878	  -2262.53392437	    159.82338821	     37.92189082	   1079.34212287	    161.54821563	     13.92070425	     15.05049999	      0.05616250	     32.56355428	    -31.74806935	    -45.00000000	    -45.00000000	  -3152.68985971	  -2082.38492106	     26.08121989	     44.27593062	    709.41981742	     41.08749191	     14.03292088	    -18.20840882
     10.08000000	    -35.01797700	    -25.38020292	     30.14111523	   -101.29268138	    835.24843053	    -42.19015527	     25.96386273	    -45.00000000	     38.79277267	    -45.00000000	    -45.00000000	  -2265.97306235	  -2262.47999437	    159.74050533	     37.63131638	   1079.31068864	    161.28320258	     14.03588019	     15.00210438	      0.10455936	     32.61463964	    -31.87314707	    -45.00000000	    -45.00000000	  -3152.52740720	  -2082.31217830	     26.11800898	     44.22629737	    709.42706004	     40.90645564	     14.10302819	    -18.34711988
     10.09000000	    -35.05869300	    -25.17090191	     29.87716629	   -102.74565155	    837.45767652	    -42.51381882	     25.89251322	    -45.00000000	     38.88117937	    -45.00000000	    -45.00000000	  -2266.07738030	  -2262.40344983	    159.67041505	     37.39352185	   1079.25452114	    161.02810481	     14.11824538	     14.99147210	      0.06245701	     32.67184555	    -31.98941250	    -45.00000000	    -45.00000000	  -3152.42551602	  -2082.24272836	     26.08376308	     44.20301724	    709.39250306	     40.68084288	     14.21080862	    -18.48634369
     10.10000000	    -35.16835201	    -24.94819901	     29.53302888	   -104.12387250	    839.59835532	    -42.84363694	     25.88783541	    -45.00000000	     38.86963880	    -45.00000000	    -45.00000000	  -2266.10776895	  -2262.35734944	    159.58537497	     37.11465937	   1079.24987643	    160.77996462	     14.22720011	     14.94105402	      0.08212863	     32.71519496	    -32.08882977	    -45.00000000	    -45.00000000	  -3152.26869699	  -2082.19280148	     26.11367278	     44.15072579	    709.39117436	     40.41998256	     14.27999330	    -18.61043785
     10.11000000	    -35.24910152	    -24.70182794	     29.21177948	   -105.43148596	    841.66176258	    -43.17785619	     25.79630854	    -45.00000000	     38.86067481	    -45.00000000	    -45.00000000	  -2266.17152331	  -2262.29095510	    159.49192366	     36.84674215	   1079.19434371	    160.55641148	     14.35003894	     14.89377340	      0.09526387	     32.75920999	    -32.20903999	    -45.00000000	    -45.00000000	  -3152.14503103	  -2082.12126952	     26.13475700	     44.15739727	    709.37654747	     40.12944559	     14.36323859	    -18.73375901
     10.12000000	    -35.25332640	    -24.52583870	     29.00114050	   -106.67364015	    843.64087772	    -43.51357140	     25.80180469	    -45.00000000	     38.97362081	    -45.00000000	    -45.00000000	  -2266.28487077	  -2262.22948074	    159.43127530	     36.63097131	   1079.14908561	    160.36803693	     14.44616608	     14.87164750	      0.02863313	     32.80755065	    -32.28620230	    -45.00000000	    -45.00000000	  -3152.06054092	  -2082.06806846	     26.10628964	     44.13843773	    709.34399550	     39.80614167	     14.44495732	    -18.83578835
     10.13000000	    -35.37608268	    -24.28150394	     28.64079133	   -107.85198809	    845.52644536	    -43.84613036	     25.84310715	    -45.00000000	     38.89087284	    -45.00000000	    -45.00000000	  -2266.29030464	  -2262.26364951	    159.27557110	     36.40466799	   1079.26271532	    160.20044268	     14.55334643	     14.78306775	      0.03141768	     32.83869353	    -32.41892467	    -45.00000000	    -45.00000000	  -3151.83879909	  -2082.06547617	     26.20264368	     44.16868265	    709.34827126	     39.49242815	     14.51764549	    -18.98415981
     10.14000000	    -35.34670607	    -24.11630788	     28.50513079	   -108.96692678	    847.31205686	    -44.16959490	     25.71626327	    -45.00000000	     38.96124945	    -45.00000000	    -45.00000000	  -2266.41119143	  -2262.13809820	    159.26739829	     36.19124401	   1079.13087207	    160.07077406	     14.67406134	     14.74645468	      0.01562251	     32.89442121	    -32.45292349	    -45.00000000	    -45.00000000	  -3151.82772074	  -2081.96495127	     26.15331333	     44.16004911	    709.31777629	     39.17263012	     14.56249343	    -19.03039835
     10.15000000	    -35.36830129	    -23.92885734	     28.28779148	   -110.01836215	    848.99527418	    -44.47800186	     25.78203572	    -45.00000000	     39.00021094	    -45.00000000	    -45.00000000	  -2266.49969109	  -2262.12695304	    159.18834146	     35.92096615	   1079.10408922	    159.95161794	     14.78358824	     14.70842271	     -0.03134373	     32.93682747	    -32.52877875	    -45.00000000	    -45.00000000	  -3151.70766011	  -2081.93145599	     26.18191653	     44.17815611	    709.31254036	     38.86733905	     14.60617661	    -19.12717987
